<svg width="48" height="48" viewBox="0 0 48 48" fill="none" xmlns="http://www.w3.org/2000/svg">
<g id="Logo">
<g id="Vector">
<path d="M6.41068 32.7311L10.785 12.76H13.3945L14.8124 14.4645L10.1515 34.7222H7.27046L6.41068 32.7311ZM5.24921 12.76L8.94478 32.882L7.99449 34.7222H4.66094L0 12.76H5.24921ZM17.2108 32.7764L20.8762 12.76H26.1103L21.4494 34.7222H18.1309L17.2108 32.7764ZM15.28 12.76L19.76 32.8518L18.8549 34.7222H15.9739L11.2074 14.4343L12.6856 12.76H15.28Z" fill="#4F78FD"/>
<path d="M37.8636 17.3757L32.5088 34.7222H26.8221L34.892 12.76H38.4971L37.8636 17.3757ZM42.2983 34.7222L36.9284 17.3757L36.2345 12.76H39.8848L48 34.7222H42.2983ZM42.0871 26.5316V30.6194H30.8194V26.5316H42.0871Z" fill="#4F78FD"/>
</g>
</g>
</svg>
